<svg xmlns="http://www.w3.org/2000/svg" xmlns:xlink="http://www.w3.org/1999/xlink" viewBox="0,0,256,256" width="26px" height="26px" fill-rule="nonzero"><g fill="#c910de" fill-rule="nonzero" stroke="none" stroke-width="1" stroke-linecap="butt" stroke-linejoin="miter" stroke-miterlimit="10" stroke-dasharray="" stroke-dashoffset="0" font-family="none" font-weight="none" font-size="none" text-anchor="none" style="mix-blend-mode: normal"><g transform="scale(9.84615,9.84615)"><path d="M11.54688,9.46875c0.08594,0.23047 0.12891,0.51563 0.12891,0.85156c0,0.40234 -0.04687,0.73438 -0.13672,0.99219c-0.08984,0.25 -0.21094,0.44922 -0.35937,0.58984c-0.15234,0.14063 -0.32422,0.24219 -0.51953,0.29688c-0.19922,0.0625 -0.41406,0.09375 -0.63672,0.09375c-0.05859,0 -0.17578,-0.00781 -0.34766,-0.02344c-0.11328,-0.01172 -0.19141,-0.02344 -0.24609,-0.03125v-3.625c0.1875,-0.03906 0.42188,-0.05469 0.69141,-0.05469c0.20703,0 0.41016,0.02734 0.60156,0.08984c0.18359,0.05859 0.34766,0.15234 0.48828,0.28125c0.14063,0.13281 0.25391,0.3125 0.33594,0.53906zM26,4.875v16.25c0,2.69141 -2.18359,4.875 -4.875,4.875h-16.25c-2.69141,0 -4.875,-2.18359 -4.875,-4.875v-16.25c0,-2.69141 2.18359,-4.875 4.875,-4.875h16.25c2.69141,0 4.875,2.18359 4.875,4.875zM13.73047,12.17578c0.20313,-0.50391 0.30469,-1.12109 0.30469,-1.83984c0,-0.79297 -0.12109,-1.44922 -0.36328,-1.94922c-0.24219,-0.5 -0.5625,-0.89844 -0.95312,-1.17578c-0.38672,-0.27734 -0.83203,-0.46484 -1.32031,-0.55859c-0.92969,-0.17578 -1.89453,-0.16797 -2.85937,-0.0625c-0.45703,0.04688 -0.88672,0.11328 -1.27734,0.19922c-0.05859,0.01563 -0.09766,0.06641 -0.09766,0.12109v11.08984c0,0.07031 0.05469,0.125 0.125,0.125h2.01563c0.06641,0 0.125,-0.05469 0.125,-0.125v-3.71094c0.02344,0.00391 0.05078,0.00781 0.07813,0.01172c0.10156,0.01172 0.20703,0.01953 0.31641,0.02344c0.10938,0.00391 0.21484,0.00781 0.3125,0.00781h0.20703c0.46875,0 0.93359,-0.07031 1.375,-0.21484c0.44922,-0.14062 0.84766,-0.37891 1.19141,-0.69922c0.34375,-0.32031 0.61719,-0.73828 0.82031,-1.24219zM19.23438,15.76172c0,-0.45703 -0.07422,-0.84766 -0.22656,-1.16016c-0.15234,-0.3125 -0.34766,-0.57812 -0.57812,-0.79687c-0.23437,-0.21484 -0.48047,-0.39453 -0.73828,-0.53906c-0.25,-0.13672 -0.48828,-0.26953 -0.71094,-0.39844c-0.21484,-0.12109 -0.39453,-0.25 -0.52734,-0.375c-0.11719,-0.10937 -0.17578,-0.24219 -0.17578,-0.41016c0,-0.24609 0.07422,-0.53125 0.65625,-0.53125c0.26563,0 0.53906,0.03906 0.81641,0.11328c0.27734,0.07813 0.51953,0.16016 0.71875,0.24219c0.03516,0.01563 0.07031,0.01563 0.10156,0c0.03516,-0.01562 0.05859,-0.04297 0.06641,-0.07812l0.44922,-1.47266c0.01563,-0.05469 -0.00391,-0.11328 -0.05469,-0.14062c-0.25391,-0.15625 -0.60156,-0.28906 -1.02734,-0.39062c-0.42187,-0.10547 -0.87891,-0.15625 -1.35547,-0.15625c-0.82031,0 -1.45312,0.21484 -1.88281,0.64453c-0.42578,0.42578 -0.64453,1.03906 -0.64453,1.81641c0,0.45313 0.07813,0.83984 0.23047,1.14453c0.14844,0.30078 0.34375,0.55859 0.57813,0.77344c0.23438,0.20703 0.48047,0.38672 0.73438,0.52734c0.25,0.13672 0.48828,0.27344 0.71094,0.40625c0.21484,0.125 0.39063,0.26563 0.52344,0.40625c0.125,0.13281 0.18359,0.29297 0.18359,0.48438c0,0.20313 -0.0625,0.34766 -0.1875,0.43359c-0.13672,0.09766 -0.32031,0.14453 -0.53516,0.14453c-0.30859,0 -0.60547,-0.04687 -0.88281,-0.13672c-0.28125,-0.09375 -0.53516,-0.20312 -0.75391,-0.32422c-0.03125,-0.01953 -0.07031,-0.02344 -0.10547,-0.01172c-0.03516,0.01563 -0.0625,0.04297 -0.07422,0.07812l-0.52734,1.53516c-0.01953,0.05469 0.00391,0.11328 0.05078,0.14453c0.26563,0.17969 0.62109,0.32422 1.05469,0.43359c0.42969,0.10938 0.875,0.16406 1.31641,0.16406c0.91797,0 1.62109,-0.23828 2.08984,-0.70703c0.46875,-0.47266 0.70703,-1.09766 0.70703,-1.86328z"></path></g></g></svg>